HIERARCHY
ROOT hip
{
  OFFSET 0 0 0
  CHANNELS 6 Xposition Yposition Zposition Zrotation Yrotation Xrotation
  JOINT abdomen
  {
    OFFSET 0 20.6881 -0.73152
    CHANNELS 3 Zrotation Xrotation Yrotation
    JOINT chest
    {
      OFFSET 0 11.7043 -0.48768
      CHANNELS 3 Zrotation Xrotation Yrotation
      JOINT neck
      {
        OFFSET 0 22.1894 -2.19456
        CHANNELS 3 Zrotation Xrotation Yrotation
        JOINT head
        {
          OFFSET -0.24384 7.07133 1.2192
          CHANNELS 3 Zrotation Xrotation Yrotation
          JOINT leftEye
          {
            OFFSET 4.14528 8.04674 8.04672
            CHANNELS 3 Zrotation Xrotation Yrotation
            End Site
            {
              OFFSET 1 0 0
            }
          }
          JOINT rightEye
          {
            OFFSET -3.6576 8.04674 8.04672
            CHANNELS 3 Zrotation Xrotation Yrotation
            End Site
            {
              OFFSET 1 0 0
            }
          }
        }
      }
      JOINT rCollar
      {
        OFFSET -2.68224 19.2634 -4.8768
        CHANNELS 3 Zrotation Xrotation Yrotation
        JOINT rShldr
        {
          OFFSET -8.77824 -1.95073 1.46304
          CHANNELS 3 Zrotation Xrotation Yrotation
          JOINT rForeArm
          {
            OFFSET -28.1742 -1.7115 0.48768
            CHANNELS 3 Zrotation Xrotation Yrotation
            JOINT rHand
            {
              OFFSET -22.5879 0.773209 7.07136
              CHANNELS 3 Zrotation Xrotation Yrotation
              JOINT rThumb1
              {
                OFFSET -1.2192 -0.487915 3.41376
                CHANNELS 3 Zrotation Xrotation Yrotation
                JOINT rThumb2
                {
                  OFFSET -3.37035 -0.52449 3.41376
                  CHANNELS 3 Zrotation Xrotation Yrotation
                  End Site
                  {
                    OFFSET -1.78271 -1.18214 1.43049
                  }
                }
              }
              JOINT rIndex1
              {
                OFFSET -7.75947 0.938293 5.60832
                CHANNELS 3 Zrotation Xrotation Yrotation
                JOINT rIndex2
                {
                  OFFSET -2.54057 -0.884171 1.56538
                  CHANNELS 3 Zrotation Xrotation Yrotation
                  End Site
                  {
                    OFFSET -1.62519 -0.234802 1.16502
                  }
                }
              }
              JOINT rMid1
              {
                OFFSET -8.24714 1.18213 3.41376
                CHANNELS 3 Zrotation Xrotation Yrotation
                JOINT rMid2
                {
                  OFFSET -3.10165 -0.590103 1.0647
                  CHANNELS 3 Zrotation Xrotation Yrotation
                  End Site
                  {
                    OFFSET -2.48547 -0.328903 0.83742
                  }
                }
              }
              JOINT rRing1
              {
                OFFSET -8.82822 0.546677 1.51678
                CHANNELS 3 Zrotation Xrotation Yrotation
                JOINT rRing2
                {
                  OFFSET -2.60934 -0.819778 -0.0198488
                  CHANNELS 3 Zrotation Xrotation Yrotation
                  End Site
                  {
                    OFFSET -2.33842 -0.294052 0.168128
                  }
                }
              }
              JOINT rPinky1
              {
                OFFSET -8.27202 -0.0477905 -0.4584
                CHANNELS 3 Zrotation Xrotation Yrotation
                JOINT rPinky2
                {
                  OFFSET -1.82734 -0.647385 -0.700984
                  CHANNELS 3 Zrotation Xrotation Yrotation
                  End Site
                  {
                    OFFSET -1.69225 -0.51767 -0.607171
                  }
                }
              }
            }
          }
        }
      }
      JOINT lCollar
      {
        OFFSET 2.68224 19.2634 -4.8768
        CHANNELS 3 Zrotation Xrotation Yrotation
        JOINT lShldr
        {
          OFFSET 8.77824 -1.95073 1.46304
          CHANNELS 3 Zrotation Xrotation Yrotation
          JOINT lForeArm
          {
            OFFSET 28.1742 -1.7115 0.48768
            CHANNELS 3 Zrotation Xrotation Yrotation
            JOINT lHand
            {
              OFFSET 22.5879 0.773209 7.07136
              CHANNELS 3 Zrotation Xrotation Yrotation
              JOINT lThumb1
              {
                OFFSET 1.2192 -0.487915 3.41376
                CHANNELS 3 Zrotation Xrotation Yrotation
                JOINT lThumb2
                {
                  OFFSET 3.37035 -0.52449 3.41376
                  CHANNELS 3 Zrotation Xrotation Yrotation
                  End Site
                  {
                    OFFSET 1.78271 -1.18214 1.43049
                  }
                }
              }
              JOINT lIndex1
              {
                OFFSET 7.75947 0.938293 5.60832
                CHANNELS 3 Zrotation Xrotation Yrotation
                JOINT lIndex2
                {
                  OFFSET 2.54057 -0.884171 1.56538
                  CHANNELS 3 Zrotation Xrotation Yrotation
                  End Site
                  {
                    OFFSET 1.62519 -0.234802 1.16502
                  }
                }
              }
              JOINT lMid1
              {
                OFFSET 8.24714 1.18213 3.41376
                CHANNELS 3 Zrotation Xrotation Yrotation
                JOINT lMid2
                {
                  OFFSET 3.10165 -0.590103 1.0647
                  CHANNELS 3 Zrotation Xrotation Yrotation
                  End Site
                  {
                    OFFSET 2.48547 -0.328903 0.83742
                  }
                }
              }
              JOINT lRing1
              {
                OFFSET 8.82822 0.546677 1.51678
                CHANNELS 3 Zrotation Xrotation Yrotation
                JOINT lRing2
                {
                  OFFSET 2.60934 -0.819778 -0.0198488
                  CHANNELS 3 Zrotation Xrotation Yrotation
                  End Site
                  {
                    OFFSET 2.33842 -0.294052 0.168128
                  }
                }
              }
              JOINT lPinky1
              {
                OFFSET 8.27202 -0.0477905 -0.4584
                CHANNELS 3 Zrotation Xrotation Yrotation
                JOINT lPinky2
                {
                  OFFSET 1.82734 -0.647385 -0.700984
                  CHANNELS 3 Zrotation Xrotation Yrotation
                  End Site
                  {
                    OFFSET 1.69225 -0.51767 -0.607171
                  }
                }
              }
            }
          }
        }
      }
    }
  }
  JOINT rButtock
  {
    OFFSET -8.77824 4.35084 1.2192
    CHANNELS 3 Zrotation Xrotation Yrotation
    JOINT rThigh
    {
      OFFSET 0 -1.70687 -2.19456
      CHANNELS 3 Zrotation Xrotation Yrotation
      JOINT rShin
      {
        OFFSET 0 -36.8199 0.73152
        CHANNELS 3 Zrotation Xrotation Yrotation
        JOINT rFoot
        {
          OFFSET 0.73152 -45.1104 -5.12064
          CHANNELS 3 Zrotation Xrotation Yrotation
          End Site
          {
            OFFSET -1.1221 -3.69964 12.103
          }
        }
      }
    }
  }
  JOINT lButtock
  {
    OFFSET 8.77824 4.35084 1.2192
    CHANNELS 3 Zrotation Xrotation Yrotation
    JOINT lThigh
    {
      OFFSET 0 -1.70687 -2.19456
      CHANNELS 3 Zrotation Xrotation Yrotation
      JOINT lShin
      {
        OFFSET 0 -36.8199 0.73152
        CHANNELS 3 Zrotation Xrotation Yrotation
        JOINT lFoot
        {
          OFFSET -0.73152 -45.1104 -5.12064
          CHANNELS 3 Zrotation Xrotation Yrotation
          End Site
          {
            OFFSET 1.1221 -3.69964 12.103
          }
        }
      }
    }
  }
}
MOTION
Frames:	9
Frame Time:	0.00833333
2.2635 61.7359 30.0632 0.0 0.0 0.0 -0.991196 -0.00434181 -0.0274284 -0.273421 -0.00447594 -0.0473693 -2.01232e-14 7.95139e-16 -1.49089e-16 -6.02783e-14 9.54166e-15 -4.89197e-16 -0.0 0.0 0.0 -0.0 0.0 0.0 -9.89142e-15 -3.99899e-17 9.93923e-17 -2.0919e-13 -1.3418e-15 -1.59028e-15 -3.62255e-12 1.05674e-12 6.36111e-15 -4.14727e-11 -1.23679e-12 -4.26194e-13 -9.78263e-11 -3.84162e-13 -8.96916e-13 -1.68954e-10 -6.64736e-13 -1.55211e-12 -9.78235e-11 -3.84847e-13 -9.06458e-13 7.73091 5.47488 0.417314 -9.78267e-11 -3.84549e-13 -9.00097e-13 2.90554 0.965183 0.102902 -9.78181e-11 -3.84052e-13 -8.99302e-13 10.2786 0.731801 0.0259123 -9.78309e-11 -3.81269e-13 -8.90555e-13 2.22167 -0.733487 -0.20892 -1.00871e-14 -3.84369e-17 -1.98785e-16 -2.11563e-13 -1.24862e-15 -3.18055e-15 -3.62474e-12 -1.11459e-12 -3.18055e-15 -4.14688e-11 9.29144e-13 -4.13472e-13 -9.78185e-11 -3.98934e-13 -8.96916e-13 -1.68926e-10 -6.9018e-13 -1.54018e-12 -9.78223e-11 -3.9916e-13 -8.87375e-13 -7.73091 5.47488 -0.417314 -9.78198e-11 -3.98961e-13 -8.96916e-13 -2.90554 0.965183 -0.102902 -9.7826e-11 -3.9906e-13 -8.93736e-13 -10.2786 0.731801 -0.0259123 -9.78146e-11 -3.96774e-13 -8.96916e-13 -2.22167 -0.733487 0.20892 -2.03217e-16 0.0 -3.88251e-19 -0.254174 -1.9193 -0.0128484 -0.00928641 -2.07855 -0.0767087 -0.496957 3.99655 0.138049 2.03217e-16 0.0 3.88251e-19 -1.25528 -5.46671 0.109754 -9.22693e-05 4.34713 -0.0243484 0.512022 1.11841 -0.0811722
1.17588 58.9413 29.879 -2.2343 -3.6641 1.1706 -0.247671 6.45413 0.056677 0.076703 0.515267 0.00471724 -0.564248 1.18778 -0.00354997 0.845704 -10.9749 0.396018 -0.0 0.0 0.0 -0.0 0.0 0.0 1.7452e-14 -2.06276e-14 -6.11651e-15 -0.791746 -3.18468 14.3637 -12.5503 -9.53521 13.6839 0.0716499 5.94352 0.819161 -2.20726e-10 1.6799e-09 5.81844e-10 -3.71226e-10 2.93428e-09 1.00752e-09 -2.20723e-10 1.6799e-09 5.81837e-10 7.73091 5.47488 0.417314 -2.20726e-10 1.67989e-09 5.81842e-10 2.90554 0.965183 0.102902 -2.20719e-10 1.6799e-09 5.81843e-10 10.2786 0.731801 0.0259123 -2.20729e-10 1.6799e-09 5.81853e-10 2.22167 -0.733487 -0.20892 1.72953e-14 -2.06276e-14 -6.41702e-15 0.629129 -4.38147 -15.5116 11.9585 -8.90105 -13.4145 -0.00839995 -2.03337 0.285122 -5.0677e-10 1.88194e-09 -2.6041e-10 -8.73933e-10 3.24745e-09 -4.51437e-10 -5.06774e-10 1.88194e-09 -2.60399e-10 -7.73091 5.47488 -0.417314 -5.06771e-10 1.88194e-09 -2.60407e-10 -2.90554 0.965183 -0.102902 -5.06779e-10 1.88194e-09 -2.60407e-10 -10.2786 0.731801 -0.0259123 -5.06766e-10 1.88194e-09 -2.60411e-10 -2.22167 -0.733487 0.20892 -2.03217e-16 0.0 -3.88251e-19 -2.98462 -14.7171 -3.40263 0.203947 19.4985 0.233274 -0.438748 -3.85063 -1.53434 2.03217e-16 0.0 3.88251e-19 3.13135 -16.5249 4.96787 -0.315873 24.4643 -0.338668 0.87698 -5.67257 3.986
1.17977 58.9419 29.8803 -2.2159 -3.6521 1.1598 0.516672 13.2814 0.148977 0.445601 1.06474 0.0598728 -1.1605 2.44439 -0.00708768 1.91701 -22.5768 0.866367 -0.0 0.0 0.0 -0.0 0.0 0.0 4.90133e-14 -4.27553e-14 -1.3039e-14 0.0364976 -5.88292 29.6742 -20.8592 -17.7742 29.2759 -0.0412811 12.2228 1.71499 -3.66047e-10 3.49312e-09 1.21954e-09 -6.11277e-10 6.10261e-09 2.11193e-09 -3.66044e-10 3.49312e-09 1.21954e-09 7.73091 5.47488 0.417314 -3.66047e-10 3.4931e-09 1.21954e-09 2.90554 0.965183 0.102902 -3.66041e-10 3.49312e-09 1.21954e-09 10.2786 0.731801 0.0259123 -3.66049e-10 3.49312e-09 1.21955e-09 2.22167 -0.733487 -0.20892 4.88976e-14 -4.27568e-14 -1.33434e-14 -1.16882 -7.93892 -32.1583 20.0785 -16.6614 -28.5586 0.00478579 -4.18564 0.588136 -9.54924e-10 3.92412e-09 -5.3789e-10 -1.64656e-09 6.77142e-09 -9.32502e-10 -9.54928e-10 3.9241e-09 -5.37878e-10 -7.73091 5.47488 -0.417314 -9.54923e-10 3.9241e-09 -5.37884e-10 -2.90554 0.965183 -0.102902 -9.54935e-10 3.9241e-09 -5.37886e-10 -10.2786 0.731801 -0.0259123 -9.5492e-10 3.92411e-09 -5.37892e-10 -2.22167 -0.733487 0.20892 -2.03217e-16 0.0 -3.88251e-19 -7.71629 -28.0834 -7.66319 0.101171 42.3065 0.721203 -0.884269 -12.1282 -3.37014 2.03217e-16 0.0 3.88251e-19 10.0467 -27.897 10.9673 -0.31188 45.7277 -0.871696 2.32976 -12.7457 8.45136
1.17739 58.9392 29.8743 -2.2218 -3.6516 1.1878 1.1798 19.3709 0.23724 0.774116 1.55475 0.10893 -1.6923 3.56335 -0.0106683 3.0661 -32.9178 1.38943 -0.0 0.0 0.0 -0.0 0.0 0.0 7.21389e-14 -6.1803e-14 -1.85483e-14 1.94377 -7.19299 43.4488 -24.4708 -21.9456 44.4114 -0.316571 17.8156 2.56747 -4.66526e-10 5.04046e-09 1.74733e-09 -7.75771e-10 8.80418e-09 3.02565e-09 -4.66523e-10 5.04046e-09 1.74732e-09 7.73091 5.47488 0.417314 -4.66525e-10 5.04043e-09 1.74733e-09 2.90554 0.965183 0.102902 -4.6652e-10 5.04046e-09 1.74733e-09 10.2786 0.731801 0.0259123 -4.66526e-10 5.04046e-09 1.74734e-09 2.22167 -0.733487 -0.20892 7.206e-14 -6.1806e-14 -1.88535e-14 -4.43412 -9.35965 -47.2132 23.8489 -20.7501 -43.1408 0.0358042 -6.09951 0.859694 -1.32467e-09 5.64662e-09 -7.79436e-10 -2.28395e-09 9.74373e-09 -1.35123e-09 -1.32468e-09 5.6466e-09 -7.79423e-10 -7.73091 5.47488 -0.417314 -1.32467e-09 5.6466e-09 -7.79427e-10 -2.90554 0.965183 -0.102902 -1.32469e-09 5.6466e-09 -7.79432e-10 -10.2786 0.731801 -0.0259123 -1.32467e-09 5.64662e-09 -7.79438e-10 -2.22167 -0.733487 0.20892 -2.03217e-16 0.0 -3.88251e-19 -14.1277 -39.6732 -12.8375 -0.713114 62.6418 1.76934 -1.75835 -19.4758 -5.16427 2.03217e-16 0.0 3.88251e-19 18.7419 -37.4484 17.829 0.488432 64.6855 -2.0496 4.6105 -18.8533 12.7567
1.18105 58.9389 29.8728 -2.1981 -3.6379 1.1913 1.63302 23.6161 0.303398 1.00368 1.89609 0.1427 -2.06322 4.3382 -0.0143411 4.01585 -40.113 1.85765 -0.0 0.0 0.0 -0.0 0.0 0.0 7.41755e-14 -7.31508e-14 -2.05245e-14 3.7041 -7.29076 53.0541 -25.5971 -22.4416 55.1548 -0.615037 21.7064 3.20715 -4.54899e-10 5.92309e-09 2.00034e-09 -7.51372e-10 1.03389e-08 3.46266e-09 -4.54897e-10 5.9231e-09 2.00034e-09 7.73091 5.47488 0.417314 -4.54898e-10 5.92307e-09 2.00034e-09 2.90554 0.965183 0.102902 -4.54894e-10 5.9231e-09 2.00034e-09 10.2786 0.731801 0.0259123 -4.549e-10 5.9231e-09 2.00035e-09 2.22167 -0.733487 -0.20892 7.41227e-14 -7.31553e-14 -2.08227e-14 -7.24868 -9.06755 -57.6741 25.1528 -21.4412 -53.5234 0.0679674 -7.41798 1.04845 -1.49841e-09 6.56995e-09 -9.31146e-10 -2.58327e-09 1.13368e-08 -1.61413e-09 -1.49841e-09 6.56993e-09 -9.31133e-10 -7.73091 5.47488 -0.417314 -1.49841e-09 6.56993e-09 -9.31136e-10 -2.90554 0.965183 -0.102902 -1.49842e-09 6.56993e-09 -9.31142e-10 -10.2786 0.731801 -0.0259123 -1.49841e-09 6.56995e-09 -9.31149e-10 -2.22167 -0.733487 0.20892 -2.03217e-16 0.0 -3.88251e-19 -20.4383 -47.4031 -17.8888 -3.25285 76.7946 4.41695 -2.6699 -24.5672 -6.56058 2.03217e-16 0.0 3.88251e-19 26.6724 -43.5394 23.9791 3.29056 77.8781 -5.06717 6.80286 -22.9318 16.0416
1.16934 58.9377 29.8704 -2.2547 -3.6497 1.2119 1.81531 25.2801 0.328691 1.09672 2.03036 0.154944 -2.21237 4.62785 -0.0189971 4.43588 -42.9069 2.07343 -0.0 0.0 0.0 -0.0 0.0 0.0 3.93864e-14 -7.69987e-14 -1.65399e-14 4.43969 -7.12317 56.7883 -25.9008 -22.0412 59.2411 -0.757348 23.2219 3.46968 -2.37585e-10 6.06664e-09 1.88552e-09 -3.78094e-10 1.05679e-08 3.2604e-09 -2.37585e-10 6.06664e-09 1.88551e-09 7.73091 5.47488 0.417314 -2.37586e-10 6.06662e-09 1.88552e-09 2.90554 0.965183 0.102902 -2.37581e-10 6.06665e-09 1.88552e-09 10.2786 0.731801 0.0259123 -2.37588e-10 6.06665e-09 1.88553e-09 2.22167 -0.733487 -0.20892 3.93451e-14 -7.70047e-14 -1.68179e-14 -8.39553 -8.63373 -61.7246 25.5155 -21.1756 -57.5087 0.0822978 -7.90338 1.11839 -1.41124e-09 6.54839e-09 -1.01143e-09 -2.43229e-09 1.12989e-08 -1.75297e-09 -1.41124e-09 6.54838e-09 -1.01142e-09 -7.73091 5.47488 -0.417314 -1.41124e-09 6.54837e-09 -1.01143e-09 -2.90554 0.965183 -0.102902 -1.41125e-09 6.54837e-09 -1.01143e-09 -10.2786 0.731801 -0.0259123 -1.41124e-09 6.54839e-09 -1.01144e-09 -2.22167 -0.733487 0.20892 -2.03217e-16 0.0 -3.88251e-19 -23.4798 -50.3085 -20.3603 -6.93377 82.3046 8.12765 -3.10371 -26.5552 -7.15238 2.03217e-16 0.0 3.88251e-19 30.308 -45.7397 26.8129 7.52633 83.0149 -9.37869 7.82343 -24.4581 17.4463
1.1717 58.939 29.869 -2.2248 -3.6486 1.2066 1.80951 25.1002 0.321887 1.09237 2.01666 0.151807 -2.20303 4.57109 -0.0243086 4.39513 -42.5594 2.04323 -0.0 0.0 0.0 -0.0 0.0 0.0 -2.13593e-14 -7.53333e-14 -8.34585e-15 4.34417 -7.14331 56.3555 -25.8645 -22.0932 58.775 -0.740139 23.0441 3.43852 1.24326e-10 5.67316e-09 1.50716e-09 2.40363e-10 9.8486e-09 2.60018e-09 1.24324e-10 5.67315e-09 1.50715e-09 7.73091 5.47488 0.417314 1.24324e-10 5.67315e-09 1.50716e-09 2.90554 0.965183 0.102902 1.24332e-10 5.67316e-09 1.50716e-09 10.2786 0.731801 0.0259123 1.24321e-10 5.67316e-09 1.50717e-09 2.22167 -0.733487 -0.20892 -2.13994e-14 -7.5341e-14 -8.59433e-15 -8.26778 -8.6792 -61.2792 25.4785 -21.2189 -57.0654 0.0794967 -7.79383 1.10263 -1.13706e-09 5.84362e-09 -1.03812e-09 -1.95857e-09 1.00816e-08 -1.79872e-09 -1.13707e-09 5.84361e-09 -1.03811e-09 -7.73091 5.47488 -0.417314 -1.13706e-09 5.84361e-09 -1.03812e-09 -2.90554 0.965183 -0.102902 -1.13707e-09 5.84361e-09 -1.03812e-09 -10.2786 0.731801 -0.0259123 -1.13706e-09 5.84362e-09 -1.03813e-09 -2.22167 -0.733487 0.20892 -2.03217e-16 0.0 -3.88251e-19 -23.1015 -49.994 -20.0602 -6.28569 81.6951 7.47633 -3.05473 -26.3444 -7.08793 2.03217e-16 0.0 3.88251e-19 29.9278 -45.4947 26.5274 6.77606 82.4628 -8.62471 7.74253 -24.2522 17.3715
1.1748 58.9377 29.8698 -2.2394 -3.6366 1.2152 1.72611 24.1818 0.303122 1.04731 1.94209 0.14267 -2.12497 4.38128 -0.028495 4.16446 -40.96 1.91423 -0.0 0.0 0.0 -0.0 0.0 0.0 -8.08057e-14 -6.62149e-14 -9.12398e-17 3.92089 -7.23369 54.2568 -25.6915 -22.3202 56.4849 -0.659678 22.1939 3.29084 4.66094e-10 4.75845e-09 9.9643e-10 8.21805e-10 8.22538e-09 1.71177e-09 4.6609e-10 4.75844e-09 9.96405e-10 7.73091 5.47488 0.417314 4.66092e-10 4.75845e-09 9.96424e-10 2.90554 0.965183 0.102902 4.66101e-10 4.75846e-09 9.96423e-10 10.2786 0.731801 0.0259123 4.66086e-10 4.75846e-09 9.96429e-10 2.22167 -0.733487 -0.20892 -8.08495e-14 -6.62238e-14 -3.10213e-16 -7.62865 -8.90995 -59.0332 25.2817 -21.3831 -54.85 0.0700544 -7.44618 1.05262 -7.66473e-10 4.58725e-09 -9.56406e-10 -1.31895e-09 7.9129e-09 -1.65665e-09 -7.66477e-10 4.58725e-09 -9.564e-10 -7.73091 5.47488 -0.417314 -7.66473e-10 4.58724e-09 -9.56404e-10 -2.90554 0.965183 -0.102902 -7.66477e-10 4.58724e-09 -9.56408e-10 -10.2786 0.731801 -0.0259123 -7.6647e-10 4.58725e-09 -9.56412e-10 -2.22167 -0.733487 0.20892 -2.03217e-16 0.0 -3.88251e-19 -21.3636 -48.389 -18.6572 -4.08671 78.636 5.26072 -2.81147 -25.254 -6.75875 2.03217e-16 0.0 3.88251e-19 27.9359 -44.2725 24.9895 4.23328 79.6314 -6.04583 7.21647 -23.3599 16.6974
1.17707 58.9392 29.8762 -2.2523 -3.6448 1.2043 1.67564 23.6302 0.292541 1.01819 1.89371 0.136914 -2.06788 4.2718 -0.0297828 4.01756 -39.9981 1.83592 -0.0 0.0 0.0 -0.0 0.0 0.0 -1.11697e-13 -4.77039e-14 4.07509e-15 3.676 -7.26171 52.9917 -25.5795 -22.3998 55.0869 -0.614161 21.6918 3.20478 6.22979e-10 3.33834e-09 4.84488e-10 1.08403e-09 5.74255e-09 8.24952e-10 6.22974e-10 3.33833e-09 4.84459e-10 7.73091 5.47488 0.417314 6.22975e-10 3.33835e-09 4.84481e-10 2.90554 0.965183 0.102902 6.22985e-10 3.33835e-09 4.8448e-10 10.2786 0.731801 0.0259123 6.22969e-10 3.33835e-09 4.84484e-10 2.22167 -0.733487 -0.20892 -1.11744e-13 -4.7713e-14 3.8763e-15 -7.24222 -9.00742 -57.6773 25.1567 -21.4364 -53.51 0.0643149 -7.21729 1.01978 -3.9006e-10 2.91088e-09 -7.11493e-10 -6.70281e-10 5.02085e-09 -1.23202e-09 -3.90064e-10 2.91088e-09 -7.1149e-10 -7.73091 5.47488 -0.417314 -3.90061e-10 2.91087e-09 -7.11493e-10 -2.90554 0.965183 -0.102902 -3.90062e-10 2.91087e-09 -7.11496e-10 -10.2786 0.731801 -0.0259123 -3.90057e-10 2.91088e-09 -7.115e-10 -2.22167 -0.733487 0.20892 -2.03217e-16 0.0 -3.88251e-19 -20.3783 -47.4121 -17.8656 -3.26482 76.7959 4.42739 -2.66962 -24.6027 -6.56065 2.03217e-16 0.0 3.88251e-19 26.7861 -43.5211 24.1049 3.29166 77.9283 -5.0819 6.91765 -22.8194 16.3112
